<?xml version="1.0" standalone="no"?>
<!DOCTYPE svg PUBLIC "-//W3C//DTD SVG 20010904//EN"
 "http://www.w3.org/TR/2001/REC-SVG-20010904/DTD/svg10.dtd">
<svg version="1.0" xmlns="http://www.w3.org/2000/svg"
 width="700.000000pt" height="700.000000pt" viewBox="0 0 700.000000 700.000000"
 preserveAspectRatio="xMidYMid meet">
<metadata>
Created by potrace 1.11, written by Peter Selinger 2001-2013
</metadata>
<g transform="translate(0.000000,700.000000) scale(0.100000,-0.100000)"
fill="#000000" stroke="none">
<path d="M1179 6429 c-372 -31 -725 -236 -939 -544 -99 -144 -180 -341 -211
-515 -21 -111 -21 -3629 0 -3740 97 -535 504 -943 1044 -1047 86 -17 233 -18
2427 -18 2198 0 2340 1 2425 18 190 37 341 99 498 204 264 175 440 430 530
768 21 79 21 91 27 1470 3 765 2 1602 -1 1860 -5 435 -7 476 -27 551 -34 129
-61 202 -114 305 -154 297 -426 530 -736 629 -213 69 -14 64 -2542 66 -1257 1
-2328 -2 -2381 -7z m4741 -380 c341 -94 574 -324 673 -664 19 -65 21 -102 25
-486 l3 -415 -527 -425 c-290 -233 -533 -428 -541 -432 -9 -6 -30 2 -61 22
-121 77 -239 111 -392 111 -156 0 -287 -39 -403 -119 l-45 -31 -214 166 c-117
92 -223 176 -236 189 l-24 22 24 74 c20 63 23 94 23 214 -1 124 -4 149 -28
220 -156 467 -707 653 -1114 377 -94 -64 -185 -169 -237 -275 -57 -115 -76
-195 -76 -323 0 -128 25 -229 84 -340 l44 -83 -386 -450 c-257 -299 -392 -449
-402 -446 -8 2 -49 16 -90 31 -61 22 -97 28 -198 32 -182 7 -312 -30 -452
-129 -32 -23 -65 -39 -72 -36 -7 3 -218 147 -468 320 l-455 313 -3 850 c-2
574 1 876 8 934 41 313 235 579 520 714 112 52 193 75 310 86 47 4 1104 7
2350 6 l2265 -1 95 -26z m-2268 -1441 c79 -37 142 -98 181 -177 29 -60 32 -74
32 -161 0 -87 -3 -101 -32 -161 -39 -79 -102 -140 -181 -177 -49 -23 -70 -27
-152 -27 -82 0 -103 4 -152 27 -216 101 -287 375 -145 560 44 57 94 95 163
124 82 34 203 31 286 -8z m1601 -1238 c75 -35 142 -103 179 -178 30 -61 33
-74 33 -162 0 -88 -3 -101 -33 -162 -38 -78 -100 -138 -182 -177 -47 -22 -68
-26 -150 -26 -82 0 -103 4 -150 26 -133 63 -210 177 -218 322 -3 67 0 93 18
140 39 105 131 197 229 231 69 24 211 17 274 -14z m-3306 -750 c77 -36 146
-104 181 -178 24 -50 27 -70 27 -157 0 -87 -3 -107 -27 -157 -51 -109 -174
-199 -293 -213 -61 -8 -153 8 -209 37 -65 33 -141 112 -172 181 -25 54 -29 74
-29 152 0 80 3 97 31 155 92 190 303 268 491 180z"/>
</g>
</svg>
