<?xml version="1.0" standalone="no"?>
<!DOCTYPE svg PUBLIC "-//W3C//DTD SVG 20010904//EN"
 "http://www.w3.org/TR/2001/REC-SVG-20010904/DTD/svg10.dtd">
<svg version="1.0" xmlns="http://www.w3.org/2000/svg"
 width="700.000000pt" height="700.000000pt" viewBox="0 0 700.000000 700.000000"
 preserveAspectRatio="xMidYMid meet">
<metadata>
Created by potrace 1.11, written by Peter Selinger 2001-2013
</metadata>
<g transform="translate(0.000000,700.000000) scale(0.100000,-0.100000)"
fill="#000000" stroke="none">
<path d="M3394 6110 c-77 -21 -135 -52 -185 -97 -150 -136 -188 -358 -92 -536
26 -46 134 -157 154 -157 14 0 11 -80 -3 -84 -7 -2 -53 -11 -103 -20 -92 -17
-236 -57 -290 -81 -16 -7 -59 -26 -95 -41 -164 -71 -383 -221 -512 -349 -6 -6
-66 37 -244 177 -61 47 -61 48 -57 92 11 101 -42 237 -125 322 -208 213 -570
156 -701 -110 -113 -233 -8 -505 234 -601 58 -23 85 -28 155 -28 49 1 102 7
125 16 l40 15 135 -105 c74 -57 142 -108 150 -113 13 -8 10 -18 -17 -72 -147
-288 -208 -526 -212 -820 l-1 -77 -62 26 c-188 78 -415 4 -526 -172 -218 -345
124 -776 513 -645 58 19 134 70 178 119 21 24 40 41 41 39 2 -1 16 -30 31 -63
36 -75 140 -251 172 -289 l24 -28 -132 -128 c-124 -119 -134 -127 -161 -119
-45 12 -158 3 -220 -19 -186 -66 -304 -241 -293 -437 15 -269 276 -462 540
-400 132 31 260 149 307 282 21 61 31 178 18 222 -7 26 0 37 119 160 l127 131
35 -25 c18 -13 39 -28 44 -33 66 -54 300 -167 448 -216 17 -6 16 -9 -10 -44
-72 -93 -97 -165 -96 -275 3 -247 192 -431 444 -430 114 0 248 60 312 140 10
13 24 29 30 36 7 6 22 30 34 52 57 106 65 264 18 370 -14 32 -24 59 -23 60 2
2 27 6 57 9 122 15 360 78 429 115 18 10 24 5 55 -42 19 -28 76 -114 126 -191
l92 -138 -22 -62 c-13 -38 -21 -87 -21 -131 -3 -300 289 -510 575 -414 306
103 396 489 167 719 -79 79 -198 130 -303 130 -31 0 -38 8 -151 177 l-118 177
28 24 c86 70 205 184 244 230 25 29 52 61 61 70 8 9 41 55 72 102 31 47 62 93
69 103 13 18 19 17 123 -25 l110 -44 11 -45 c6 -24 23 -67 37 -94 135 -266
496 -316 703 -98 123 131 152 323 73 488 -108 229 -391 314 -611 184 l-51 -30
-101 41 c-55 22 -107 44 -114 49 -11 6 -9 23 7 87 11 43 23 103 27 131 6 47
11 57 53 90 84 68 124 122 156 213 78 222 -50 480 -276 555 -47 16 -50 19 -93
108 -25 51 -58 115 -75 143 l-31 52 86 83 c50 50 92 83 102 81 139 -23 280 15
378 101 91 80 144 191 149 312 9 242 -174 440 -416 451 -208 9 -390 -127 -443
-330 -14 -52 -15 -190 -2 -203 6 -6 -122 -143 -134 -143 -3 0 -18 12 -35 26
-243 211 -579 369 -876 411 l-54 8 -3 40 c-3 35 1 42 25 57 117 69 197 231
188 377 -8 119 -45 201 -130 287 -109 110 -267 154 -411 114z m371 -1324 c520
-113 906 -499 1021 -1021 23 -105 28 -381 9 -480 -23 -115 -25 -124 -51 -203
-90 -269 -283 -522 -519 -677 -292 -192 -647 -259 -995 -188 -504 102 -914
513 -1013 1013 -23 116 -27 157 -27 270 1 117 2 134 20 239 30 181 146 444
245 557 6 7 32 38 60 70 177 210 442 362 735 422 124 26 393 25 515 -2z"/>
<path d="M3012 4149 c-119 -25 -193 -160 -155 -281 60 -183 320 -198 402 -23
77 163 -69 342 -247 304z"/>
<path d="M4050 3705 c-283 -76 -411 -378 -273 -641 69 -131 235 -224 393 -218
233 8 419 197 422 429 0 39 -5 90 -12 115 -39 142 -155 265 -287 307 -63 19
-186 23 -243 8z"/>
<path d="M3200 3047 c-83 -45 -123 -97 -135 -174 -17 -117 78 -236 198 -247
57 -6 137 27 178 72 64 73 75 157 32 243 -40 78 -94 112 -181 117 -43 2 -76
-2 -92 -11z"/>
</g>
</svg>
