<?xml version="1.0" standalone="no"?>
<!DOCTYPE svg PUBLIC "-//W3C//DTD SVG 20010904//EN"
 "http://www.w3.org/TR/2001/REC-SVG-20010904/DTD/svg10.dtd">
<svg version="1.0" xmlns="http://www.w3.org/2000/svg"
 width="700.000000pt" height="700.000000pt" viewBox="0 0 700.000000 700.000000"
 preserveAspectRatio="xMidYMid meet">
<metadata>
Created by potrace 1.11, written by Peter Selinger 2001-2013
</metadata>
<g transform="translate(0.000000,700.000000) scale(0.100000,-0.100000)"
fill="#000000" stroke="none">
<path d="M1350 6160 c-438 -53 -826 -373 -963 -795 -59 -180 -57 -113 -57
-1865 0 -1434 2 -1617 16 -1701 87 -506 498 -895 1014 -958 110 -14 4172 -15
4280 -1 272 35 489 141 684 335 204 203 307 421 336 713 8 74 10 596 8 1682
l-4 1575 -22 96 c-106 464 -432 790 -907 906 -65 16 -225 17 -2195 19 -1169 1
-2154 -2 -2190 -6z m4354 -343 c161 -48 256 -101 368 -206 136 -127 221 -284
253 -466 11 -67 15 -167 15 -419 l0 -331 -163 -130 c-89 -72 -310 -249 -490
-395 l-329 -264 -26 18 c-58 38 -177 88 -240 102 -173 36 -363 -2 -517 -104
l-30 -20 -210 164 c-233 182 -220 164 -189 274 12 46 18 96 17 170 -1 179 -65
331 -194 459 -78 79 -166 132 -274 168 -67 22 -98 26 -195 26 -97 0 -128 -4
-195 -26 -189 -62 -334 -191 -414 -369 -42 -93 -56 -161 -55 -268 1 -116 22
-199 76 -303 l41 -78 -20 -22 c-11 -12 -161 -186 -333 -387 -172 -201 -322
-375 -334 -387 l-21 -22 -84 29 c-201 68 -403 41 -584 -77 -37 -25 -71 -43
-76 -41 -5 2 -196 131 -425 288 l-415 285 -1 815 c0 777 1 819 20 897 79 329
343 576 678 633 26 4 1001 7 2167 6 2004 -1 2123 -2 2179 -19z m-2071 -1306
c65 -28 141 -102 174 -170 36 -74 38 -200 5 -274 -30 -66 -104 -142 -171 -174
-47 -23 -69 -27 -141 -27 -72 0 -94 4 -141 27 -67 32 -141 108 -171 174 -33
74 -31 200 5 274 44 91 132 163 232 190 47 13 155 2 208 -20z m1444 -1123 c80
-29 162 -112 192 -193 31 -82 26 -197 -11 -270 -107 -206 -376 -252 -537 -93
-24 24 -55 66 -70 93 -23 44 -26 61 -26 150 0 92 2 104 30 153 37 69 112 135
178 161 72 28 169 27 244 -1z m-2992 -687 c220 -104 267 -382 93 -547 -66 -64
-120 -87 -213 -92 -65 -3 -91 0 -137 18 -75 28 -150 96 -185 168 -24 50 -28
69 -28 147 0 78 4 97 28 147 34 70 110 140 180 167 82 31 186 28 262 -8z"/>
</g>
</svg>
