<?xml version="1.0" standalone="no"?>
<!DOCTYPE svg PUBLIC "-//W3C//DTD SVG 20010904//EN"
 "http://www.w3.org/TR/2001/REC-SVG-20010904/DTD/svg10.dtd">
<svg version="1.0" xmlns="http://www.w3.org/2000/svg"
 width="700.000000pt" height="700.000000pt" viewBox="0 0 700.000000 700.000000"
 preserveAspectRatio="xMidYMid meet">
<metadata>
Created by potrace 1.11, written by Peter Selinger 2001-2013
</metadata>
<g transform="translate(0.000000,700.000000) scale(0.100000,-0.100000)"
fill="#000000" stroke="none">
<path d="M955 6984 c-483 -86 -856 -463 -940 -948 -13 -78 -15 -388 -15 -2536
0 -2701 -4 -2532 62 -2720 62 -175 147 -310 278 -442 169 -169 386 -282 619
-322 85 -14 333 -16 2541 -16 2208 0 2456 2 2541 16 478 82 861 465 943 943
14 85 16 333 16 2541 0 2148 -2 2458 -15 2536 -84 489 -460 865 -949 949 -78
13 -384 15 -2545 14 -2083 -1 -2468 -3 -2536 -15z m2656 -472 c278 -73 427
-380 304 -628 -28 -57 -52 -88 -111 -141 -85 -76 -139 -155 -180 -263 -25 -67
-28 -88 -29 -200 0 -132 16 -206 68 -310 19 -38 28 -46 62 -53 128 -27 251
-63 332 -98 51 -21 102 -39 114 -39 11 0 34 13 50 29 24 25 29 38 29 79 0 27
-9 75 -21 108 -17 49 -20 76 -16 156 3 85 8 105 40 172 111 234 392 335 626
225 306 -142 367 -531 118 -755 -93 -83 -173 -113 -335 -123 -114 -8 -141 -21
-173 -81 l-19 -34 63 -65 c90 -94 167 -200 229 -316 60 -113 69 -120 182 -135
199 -28 438 77 515 227 88 173 364 215 538 83 178 -134 130 -416 -90 -525 -65
-32 -81 -36 -162 -38 -50 -1 -137 4 -195 12 -216 28 -509 -18 -597 -94 l-27
-22 3 -144 c1 -80 -3 -183 -10 -229 -22 -151 -31 -134 108 -227 68 -45 160
-96 205 -114 77 -31 91 -33 203 -34 118 0 122 1 201 37 158 73 306 75 447 5
187 -92 311 -320 278 -508 -37 -211 -209 -365 -430 -385 -164 -15 -338 60
-417 181 -197 300 -456 512 -641 523 -100 7 -129 -3 -161 -51 -15 -23 -45 -68
-68 -99 -41 -56 -41 -58 -54 -188 -14 -150 -9 -242 18 -303 26 -59 42 -68 130
-77 180 -19 318 -111 392 -264 147 -303 -81 -656 -424 -656 -132 0 -244 47
-337 139 -64 64 -102 132 -126 224 -18 70 -14 179 12 376 26 197 16 251 -54
298 -44 30 -65 29 -142 -5 -35 -16 -99 -40 -142 -53 -52 -15 -82 -30 -90 -44
-14 -26 -13 -180 2 -265 7 -36 36 -175 66 -310 73 -332 88 -436 83 -579 -3
-106 -6 -122 -35 -184 -90 -191 -302 -303 -506 -269 -272 46 -449 308 -382
567 35 131 100 209 258 307 228 140 267 238 186 464 -32 86 -109 231 -134 250
-9 6 -43 15 -77 18 -33 4 -103 18 -155 32 -82 21 -100 23 -141 13 -257 -63
-420 -282 -461 -617 -13 -105 -37 -158 -101 -226 -73 -77 -150 -110 -255 -110
-65 0 -90 4 -137 26 -79 37 -142 98 -180 176 -28 57 -33 76 -33 142 1 59 6 87
26 130 51 110 117 160 240 186 41 8 110 33 154 54 214 106 325 269 296 436
-16 92 -40 139 -112 224 -35 42 -76 91 -90 110 l-25 33 -65 -12 c-73 -15 -185
-63 -254 -111 -73 -50 -182 -157 -247 -243 -99 -130 -204 -198 -333 -216 -286
-41 -546 178 -545 459 1 170 104 332 260 408 151 74 337 66 425 -18 23 -22 49
-32 115 -46 148 -29 327 -3 421 62 34 23 39 32 39 64 0 39 -43 219 -60 251 -6
10 -10 28 -10 41 0 34 -50 108 -96 145 -108 85 -274 134 -459 135 -140 1 -210
-12 -321 -57 -44 -19 -108 -38 -140 -44 -151 -28 -305 53 -376 197 -62 126
-39 266 61 374 130 141 352 151 492 22 157 -144 475 -233 679 -190 155 33 243
98 325 241 43 76 45 83 40 140 -4 42 -18 86 -47 145 -36 73 -57 101 -157 200
-128 128 -226 198 -396 283 -125 62 -186 112 -241 193 -57 87 -76 160 -72 275
3 87 7 103 40 171 145 293 532 356 764 124 98 -99 141 -215 130 -352 -3 -41
-9 -108 -12 -149 -5 -60 -2 -88 16 -147 57 -190 178 -336 305 -370 40 -11 50
-10 73 3 219 131 319 176 487 219 65 16 123 35 127 42 68 97 52 276 -47 543
-20 55 -68 163 -105 241 -89 182 -114 269 -108 385 4 76 9 97 41 161 100 204
328 307 548 250z"/>
<path d="M3175 4430 c-157 -28 -285 -121 -353 -256 -157 -313 72 -674 428
-674 250 0 458 190 477 435 16 207 -120 407 -322 473 -74 25 -164 33 -230 22z"/>
<path d="M2928 3256 c-101 -36 -158 -118 -158 -227 0 -96 73 -196 161 -219
170 -46 319 58 319 221 0 73 -19 122 -68 172 -59 60 -169 83 -254 53z"/>
<path d="M3719 3217 c-221 -93 -298 -343 -161 -522 139 -183 378 -201 538 -41
80 80 107 148 102 256 -6 126 -72 227 -190 290 -55 30 -74 34 -148 37 -72 3
-94 0 -141 -20z"/>
</g>
</svg>
