<svg version="1.1" xmlns="http://www.w3.org/2000/svg" xmlns:xlink="http://www.w3.org/1999/xlink" viewBox="0 0 172 172"><g fill="none" fill-rule="nonzero" stroke="none" stroke-width="1" stroke-linecap="butt" stroke-linejoin="miter" stroke-miterlimit="10" stroke-dasharray="" stroke-dashoffset="0" font-family="none" font-weight="none" font-size="none" text-anchor="none" style="mix-blend-mode: normal"><path d="M0,172v-172h172v172z" fill="none"></path><g><path d="M135.31563,147.54375h-98.63125c-13.57188,0 -24.59063,-11.01875 -24.59063,-24.59062v-73.90625c0,-13.57187 11.01875,-24.59062 24.59063,-24.59062h98.49688c13.57187,0 24.59062,11.01875 24.59062,24.59063v73.90625c0.13438,13.57188 -10.88438,24.59062 -24.45625,24.59062z" fill="#ffffff"></path><path d="M135.31563,147.54375h-98.63125c-13.57188,0 -24.59063,-11.01875 -24.59063,-24.59062v-73.90625c0,-13.57187 11.01875,-24.59062 24.59063,-24.59062h98.49688c13.57187,0 24.59062,11.01875 24.59062,24.59063v73.90625c0.13438,13.57188 -10.88438,24.59062 -24.45625,24.59062z" fill="#ffffff"></path><path d="M135.31563,147.54375h-98.63125c-13.57188,0 -24.59063,-11.01875 -24.59063,-24.59062v-34.53437l35.74375,24.59062l38.1625,-44.34375l35.74375,27.68125l38.1625,-30.6375v57.24375c0,13.57188 -11.01875,24.59062 -24.59062,24.59062z" fill="#f92672"></path><path d="M47.8375,117.175c-0.80625,0 -1.6125,-0.26875 -2.28437,-0.67187l-35.74375,-24.725c-1.88125,-1.20938 -2.28437,-3.7625 -1.075,-5.64375c1.20937,-1.88125 3.7625,-2.28437 5.64375,-1.075l32.7875,22.575l35.87813,-41.65625c1.34375,-1.6125 3.7625,-1.88125 5.50937,-0.5375l33.19062,25.93438l35.74375,-28.75625c1.74687,-1.34375 4.3,-1.075 5.64375,0.67188c1.34375,1.74687 1.075,4.3 -0.67187,5.64375l-38.1625,30.6375c-1.47812,1.20938 -3.49375,1.20938 -4.97187,0l-32.7875,-25.2625l-35.60938,41.3875c-0.80625,0.94063 -2.01562,1.47813 -3.09063,1.47813z" fill="#454b54"></path><path d="M47.8375,100.78125c-6.82762,0 -12.3625,5.53488 -12.3625,12.3625c0,6.82762 5.53488,12.3625 12.3625,12.3625c6.82762,0 12.3625,-5.53488 12.3625,-12.3625c0,-6.82762 -5.53488,-12.3625 -12.3625,-12.3625zM121.74375,84.11875c-6.82762,0 -12.3625,5.53488 -12.3625,12.3625c0,6.82762 5.53488,12.3625 12.3625,12.3625c6.82762,0 12.3625,-5.53488 12.3625,-12.3625c0,-6.82762 -5.53488,-12.3625 -12.3625,-12.3625zM86,56.4375c-6.82762,0 -12.3625,5.53488 -12.3625,12.3625c0,6.82762 5.53488,12.3625 12.3625,12.3625c6.82762,0 12.3625,-5.53488 12.3625,-12.3625c0,-6.82762 -5.53488,-12.3625 -12.3625,-12.3625z" fill="#ffffff"></path><path d="M47.8375,129.40312c-9.00312,0 -16.39375,-7.39062 -16.39375,-16.39375c0,-9.00312 7.39063,-16.39375 16.39375,-16.39375c9.00312,0 16.39375,7.39063 16.39375,16.39375c0,9.1375 -7.39063,16.39375 -16.39375,16.39375zM47.8375,104.8125c-4.56875,0 -8.33125,3.7625 -8.33125,8.33125c0,4.56875 3.7625,8.33125 8.33125,8.33125c4.56875,0 8.33125,-3.7625 8.33125,-8.33125c0,-4.56875 -3.7625,-8.33125 -8.33125,-8.33125zM121.74375,112.875c-9.00312,0 -16.39375,-7.39062 -16.39375,-16.39375c0,-9.00313 7.39063,-16.39375 16.39375,-16.39375c9.00312,0 16.39375,7.39063 16.39375,16.39375c0,9.00312 -7.39062,16.39375 -16.39375,16.39375zM121.74375,88.15c-4.56875,0 -8.33125,3.7625 -8.33125,8.33125c0,4.56875 3.7625,8.33125 8.33125,8.33125c4.56875,0 8.33125,-3.7625 8.33125,-8.33125c0,-4.56875 -3.7625,-8.33125 -8.33125,-8.33125zM86,85.05938c-9.00312,0 -16.39375,-7.39062 -16.39375,-16.39375c0,-8.86875 7.39063,-16.25937 16.39375,-16.25937c9.00312,0 16.39375,7.39063 16.39375,16.39375c0,9.00312 -7.39062,16.25938 -16.39375,16.25938zM86,60.46875c-4.56875,0 -8.33125,3.7625 -8.33125,8.33125c0,4.56875 3.7625,8.33125 8.33125,8.33125c4.56875,0 8.33125,-3.7625 8.33125,-8.33125c0,-4.56875 -3.7625,-8.33125 -8.33125,-8.33125z" fill="#454b54"></path><path d="M135.31563,151.575h-98.63125c-15.72188,0 -28.62188,-12.76562 -28.62188,-28.62187v-73.90625c0,-15.85625 12.9,-28.62187 28.62188,-28.62187h98.49688c15.85625,0 28.62187,12.9 28.62187,28.62188v73.90625c0.13438,15.85625 -12.76562,28.62187 -28.4875,28.62187zM36.68438,28.4875c-11.2875,0 -20.55938,9.1375 -20.55938,20.55938v73.90625c0,11.42188 9.27187,20.55937 20.55938,20.55937h98.49688c11.42188,0 20.55937,-9.27187 20.55937,-20.55937v-73.90625c0,-11.42187 -9.27188,-20.55937 -20.55937,-20.55937z" fill="#454b54"></path></g></g></svg>