<svg version="1.1" xmlns="http://www.w3.org/2000/svg" xmlns:xlink="http://www.w3.org/1999/xlink" viewBox="0 0 172 172"><g transform=""><g fill="none" fill-rule="nonzero" stroke="none" stroke-width="1" stroke-linecap="butt" stroke-linejoin="miter" stroke-miterlimit="10" stroke-dasharray="" stroke-dashoffset="0" font-family="none" font-weight="none" font-size="none" text-anchor="none" style="mix-blend-mode: normal"><path d="M0,172v-172h172v172z" fill="none"></path><path d="M28.38,172c-15.67384,0 -28.38,-12.70616 -28.38,-28.38v-115.24c0,-15.67384 12.70616,-28.38 28.38,-28.38h115.24c15.67384,0 28.38,12.70616 28.38,28.38v115.24c0,15.67384 -12.70616,28.38 -28.38,28.38z" fill="#06121a"></path><g><path d="M141.36657,63.06738c-3.51482,0 -6.44514,1.71818 -7.61413,4.58182c-3.51482,5.16239 -11.13287,6.30784 -15.8206,4.01694c-0.86694,-1.98101 -50.39214,-15.47932 -50.39214,-14.91052c-6.44514,3.44029 -12.30579,-7.44937 -11.71737,-12.61569v-0.57273c0.5845,-1.14545 0.5845,-2.29483 0.5845,-3.44029c0,-6.30392 -5.27615,-11.46631 -11.71737,-11.46631c-6.44906,0 -11.72129,5.15847 -11.72129,11.46631c0,5.15847 3.51482,9.1754 7.61805,10.89751c6.52752,2.65965 15.55778,10.74844 14.95367,16.02067c2.60473,4.67204 -3.6835,29.22085 -3.23238,30.9861c-3.51482,3.44029 -10.54838,2.86364 -13.4787,1.71818c-1.16899,-1.71818 -3.51482,-2.29483 -5.86065,-2.29483c-6.44514,0 -11.71737,5.15847 -11.71737,11.47023c0,6.30392 5.27223,11.46631 11.71737,11.46631c4.10324,0 7.02964,-1.7221 9.37546,-4.58966c3.51482,-5.15454 9.37939,-9.74421 14.65161,-9.74421c0.76102,1.11407 63.87476,-23.50535 63.87476,-24.07807c0.58057,-2.29483 9.95996,-4.58966 18.16251,-2.86756h2.3419c4.68773,0 8.79489,-4.01301 8.79489,-8.59875c0,-4.58574 -4.11108,-7.44545 -8.80274,-7.44545z" fill="#a6e22e"></path><path d="M115.58993,120.97166c-4.68381,0 -2.3419,-10.88966 -2.3419,-12.61176c0.57665,-0.85517 -3.51482,-47.58734 -3.51482,-47.58734c0.5845,-1.7221 1.17291,-3.44029 4.09931,-3.44029c0,0 0,0 0.5845,0h0.58842c6.44514,0 11.71345,-5.15847 11.71345,-11.46631c0,-6.30784 -5.27223,-11.46631 -11.71345,-11.46631c-6.44906,0 -11.72129,5.15454 -11.72129,11.46631c0,1.14545 0,2.29091 0.58057,3.44029c0,0 2.34975,5.73119 -2.9264,5.15454c0,0 -44.31574,15.38518 -46.46935,15.77353c-5.4056,9.90112 -19.78262,4.83288 -23.84271,1.43182c-1.17291,-1.7221 -3.51482,-2.86756 -6.44906,-2.86756c-4.68773,0 -8.78705,4.01694 -8.78705,8.60267c0,4.58966 4.09931,8.59875 8.79097,8.59875c1.76133,0 3.51482,-0.57273 4.68773,-1.14545c7.02964,-3.44421 19.92384,-1.14938 21.68125,5.15454v0.57665c0.26283,1.2906 9.44607,19.02552 10.54445,20.63779c5.86065,10.89358 -8.78705,15.47932 -8.78705,15.47932c-4.10324,0 -7.61805,3.44029 -7.61805,8.02602c0,4.58966 4.09931,8.59875 8.78705,8.59875c4.68773,0 8.79097,-4.00909 8.79097,-8.59875c1.17291,-9.16756 5.86065,-14.9066 14.64769,-15.4754c1.35728,0.43935 22.26575,-1.14938 24.02315,-1.71818c6.44906,1.14153 2.9264,6.30392 2.9264,14.9066c0,6.30392 5.28007,11.46631 11.72129,11.46631c6.44906,0 11.72129,-5.15847 11.72129,-11.46631c0.00392,-6.31177 -5.2683,-11.47023 -11.71737,-11.47023z" fill="#a6e22e"></path><path d="M86.00034,50.69491c-19.49846,0 -35.30509,15.80663 -35.30509,35.30509c0,19.49846 15.80663,35.30509 35.30509,35.30509c19.49846,0 35.30509,-15.80663 35.30509,-35.30509c0,-19.49846 -15.80663,-35.30509 -35.30509,-35.30509z" fill="#a6e22e"></path><path d="M95.08159,119.2574c1.29844,-2.5302 -3.13823,-3.28337 -6.62951,-3.16177c-3.49128,0.12161 -6.86488,2.14577 -6.22546,4.36606c9.3127,14.27503 2.29875,15.99321 -1.79664,18.86077c-3.51482,1.71818 -5.86065,5.73119 -5.86065,9.74421c0,6.30392 5.27615,11.46631 11.72129,11.46631c6.44514,0 11.72129,-5.15847 11.72129,-11.46631c0.00392,-10.89358 -7.02964,-26.3729 -2.93032,-29.80927zM144.30082,97.46631c-2.34583,0 -4.68381,0.57273 -6.44514,1.71818c-6.99041,2.85187 -13.39632,-2.22814 -18.07621,-5.66843c-2.33798,-1.44751 -4.99371,2.22422 -5.77042,3.69919c-0.77671,1.47497 -1.96139,6.68051 2.74987,6.55498c7.97503,-2.56943 17.57409,10.89358 17.57409,10.89358c1.76133,4.00909 5.86457,6.30392 10.54838,6.30392c6.45299,0 11.72129,-5.15847 11.72129,-11.46631c-0.58057,-6.87665 -5.8528,-12.03511 -12.30186,-12.03511zM75.74617,29.23726c7.61413,15.48324 7.02964,21.21444 2.93032,22.93654c-3.64819,2.62827 2.23599,6.18231 6.58636,5.63312c4.35037,-0.54919 8.27316,-2.69888 5.57036,-6.48829c-6.72758,-11.8782 1.90255,-19.78262 1.90255,-19.78262c2.93032,-1.71818 4.68381,-5.15847 4.68381,-8.59875c0.00392,-6.31177 -5.2683,-11.47023 -11.71345,-11.47023c-6.44514,0 -11.71737,5.15847 -11.71737,11.46631c0,1.71818 0.5845,3.44029 1.17291,5.15847c0,0.57665 0,0.57665 0.5845,1.14545z" fill="#a6e22e"></path><path d="M79.84941,86c-6.44906,0 -11.71737,-5.15847 -11.71737,-11.46631c0,-6.30784 5.27223,-11.46631 11.71737,-11.46631c6.44514,0 11.71737,5.15847 11.71737,11.46631c0,6.30784 -5.27223,11.46631 -11.71737,11.46631z" fill="#d3473a"></path><path d="M73.98876,103.20143c-3.51482,0 -5.86065,-2.29483 -5.86065,-5.73512c0,-3.44029 2.3419,-5.73512 5.86065,-5.73512c3.51482,0 5.86065,2.29483 5.86065,5.73512c0,3.44029 -2.34583,5.73512 -5.86065,5.73512z" fill="#3498db"></path><path d="M94.4971,109.50535c-4.68773,0 -8.79097,-4.00909 -8.79097,-8.59875c0,-4.58966 4.09931,-8.59875 8.79097,-8.59875c4.68381,0 8.78705,4.00909 8.78705,8.59875c0,4.58966 -4.10324,8.59875 -8.78705,8.59875z" fill="#f39c13"></path></g><path d="" fill="none"></path></g></g></svg>